<?xml version="1.0" encoding="utf-8"?>
<!-- Generator: Adobe Illustrator 15.1.0, SVG Export Plug-In . SVG Version: 6.00 Build 0)  -->
<!DOCTYPE svg PUBLIC "-//W3C//DTD SVG 1.1//EN" "http://www.w3.org/Graphics/SVG/1.1/DTD/svg11.dtd">
<svg version="1.1" id="Layer_1" xmlns="http://www.w3.org/2000/svg" xmlns:xlink="http://www.w3.org/1999/xlink" x="0px" y="0px"
	 width="12px" height="12px" viewBox="0 0 12 12" enable-background="new 0 0 12 12" xml:space="preserve">
<path fill="#333333" d="M9.123,7.63c0.049,0,0.178,0.056,0.387,0.169s0.432,0.239,0.672,0.375c0.242,0.137,0.476,0.276,0.699,0.416
	c0.227,0.141,0.379,0.23,0.459,0.271c0.08,0.049,0.195,0.113,0.344,0.19c0.15,0.078,0.25,0.167,0.303,0.267
	C11.996,9.35,12,9.407,12,9.493c0,0.079-0.008,0.171-0.023,0.271c-0.016,0.104-0.033,0.213-0.059,0.323
	c-0.025,0.113-0.057,0.222-0.092,0.323c-0.033,0.104-0.066,0.191-0.098,0.267c-0.088,0.196-0.238,0.374-0.445,0.537
	s-0.439,0.302-0.693,0.412c-0.258,0.114-0.52,0.203-0.787,0.271C9.535,11.966,9.303,12,9.107,12c-0.4,0-0.785-0.064-1.152-0.191
	C7.586,11.68,7.223,11.545,6.861,11.4c-0.616-0.226-1.199-0.521-1.749-0.887c-0.549-0.365-1.057-0.774-1.53-1.231
	C3.115,8.826,2.676,8.334,2.27,7.807C1.864,7.277,1.503,6.738,1.188,6.188C1.062,5.983,0.932,5.744,0.794,5.47
	C0.656,5.198,0.527,4.918,0.411,4.631c-0.12-0.288-0.216-0.573-0.294-0.853C0.04,3.497,0,3.233,0,2.988
	c0-0.274,0.037-0.56,0.11-0.859c0.072-0.297,0.18-0.583,0.322-0.857C0.576,1,0.748,0.753,0.947,0.533
	c0.199-0.218,0.432-0.392,0.699-0.517c0.06,0.011,0.126,0.011,0.2,0C1.917,0.005,1.983,0,2.045,0C2.094,0,2.17,0.003,2.27,0.008
	c0.1,0.006,0.201,0.011,0.301,0.016C2.67,0.027,2.767,0.04,2.86,0.057c0.092,0.019,0.161,0.037,0.205,0.057
	c0.04,0.029,0.078,0.075,0.114,0.135c0.036,0.06,0.065,0.126,0.091,0.198c0.024,0.072,0.047,0.149,0.072,0.226
	C3.363,0.75,3.384,0.814,3.404,0.864C3.433,0.955,3.493,1.119,3.58,1.356c0.089,0.239,0.178,0.483,0.267,0.732
	C3.938,2.339,4.02,2.572,4.093,2.786C4.165,3.001,4.2,3.134,4.2,3.185c0,0.186-0.061,0.355-0.184,0.51
	C3.894,3.849,3.758,3.994,3.611,4.126c-0.147,0.134-0.284,0.26-0.41,0.376C3.076,4.62,3.013,4.735,3.013,4.844
	c0,0.101,0.042,0.223,0.125,0.368c0.083,0.146,0.149,0.26,0.2,0.346c0.42,0.725,0.892,1.347,1.415,1.865
	C5.276,7.941,5.909,8.41,6.65,8.83c0.093,0.051,0.205,0.12,0.343,0.207c0.138,0.088,0.263,0.132,0.38,0.132
	c0.113,0,0.244-0.079,0.393-0.239s0.299-0.338,0.453-0.531c0.15-0.189,0.307-0.366,0.465-0.527S8.988,7.63,9.123,7.63z"/>
</svg>
