<?xml version="1.0" encoding="utf-8"?>
<!-- Generator: Adobe Illustrator 15.1.0, SVG Export Plug-In . SVG Version: 6.00 Build 0)  -->
<!DOCTYPE svg PUBLIC "-//W3C//DTD SVG 1.1//EN" "http://www.w3.org/Graphics/SVG/1.1/DTD/svg11.dtd">
<svg version="1.1" id="Layer_1" xmlns="http://www.w3.org/2000/svg" xmlns:xlink="http://www.w3.org/1999/xlink" x="0px" y="0px"
	 width="12px" height="12px" viewBox="0 0 12 12" enable-background="new 0 0 12 12" xml:space="preserve">
<path fill="#333333" d="M11.258,1c0.203,0,0.379,0.075,0.525,0.222C11.928,1.369,12,1.545,12,1.749v8.502
	c0,0.204-0.072,0.38-0.217,0.526C11.637,10.926,11.461,11,11.258,11H0.749c-0.204,0-0.38-0.074-0.527-0.223
	C0.074,10.631,0,10.455,0,10.251V1.749c0-0.204,0.074-0.38,0.221-0.527C0.369,1.075,0.545,1,0.749,1H11.258L11.258,1z M1.003,2.003
	v0.423c0,0.134,0.03,0.276,0.091,0.426c0.06,0.149,0.137,0.293,0.231,0.433C1.418,3.423,1.52,3.553,1.631,3.673
	c0.11,0.118,0.22,0.219,0.329,0.302c0.434,0.331,0.867,0.657,1.299,0.979C3.69,5.279,4.124,5.609,4.558,5.948
	c0.086,0.069,0.19,0.15,0.312,0.244c0.122,0.093,0.248,0.185,0.378,0.272c0.13,0.091,0.26,0.166,0.387,0.229
	C5.763,6.757,5.881,6.788,5.99,6.788h0.013h0.013c0.108,0,0.227-0.031,0.354-0.095c0.128-0.062,0.256-0.139,0.385-0.229
	c0.127-0.088,0.25-0.179,0.372-0.272c0.119-0.094,0.225-0.175,0.314-0.244C7.877,5.609,8.309,5.277,8.74,4.952
	C9.171,4.627,9.605,4.3,10.041,3.975c0.107-0.077,0.217-0.177,0.328-0.299c0.111-0.123,0.213-0.252,0.307-0.391
	c0.092-0.14,0.17-0.284,0.232-0.433c0.064-0.15,0.096-0.292,0.096-0.426V2.003H1.003z M11.004,9.997V4.451
	c-0.135,0.135-0.26,0.243-0.379,0.325c-0.459,0.348-0.92,0.693-1.381,1.039C8.781,6.16,8.322,6.516,7.865,6.881
	C7.602,7.092,7.314,7.296,7.01,7.49C6.703,7.688,6.363,7.784,5.99,7.784c-0.356,0-0.688-0.099-0.996-0.294
	C4.686,7.296,4.399,7.092,4.135,6.88c-0.452-0.366-0.91-0.722-1.374-1.068C2.296,5.463,1.834,5.119,1.375,4.775
	C1.257,4.699,1.133,4.59,1.003,4.451v5.546H11.004z"/>
</svg>
