<svg width="14" height="14" viewBox="0 0 14 14" fill="none" xmlns="http://www.w3.org/2000/svg">
<path d="M12.25 0H1.75C0.783502 0 0 0.783502 0 1.75V12.25C0 13.2165 0.783502 14 1.75 14H12.25C13.2165 14 14 13.2165 14 12.25V1.75C14 0.783502 13.2165 0 12.25 0Z" fill="#FA5D00"/>
<path d="M6.475 8.1375V11.375H5.8625V6.475C5.86142 6.39803 5.87728 6.32177 5.90895 6.25162C5.94063 6.18146 5.98734 6.11913 6.04578 6.06904C6.10423 6.01895 6.17297 5.98232 6.24714 5.96174C6.32132 5.94117 6.3991 5.93716 6.475 5.95H8.05V7.525C8.06284 7.6009 8.05883 7.67869 8.03826 7.75286C8.01768 7.82703 7.98106 7.89577 7.93096 7.95422C7.88087 8.01266 7.81854 8.05937 7.74838 8.09104C7.67823 8.12272 7.60197 8.13858 7.525 8.1375H6.475ZM11.375 2.625V10.85C11.375 10.9892 11.3197 11.1228 11.2212 11.2212C11.1228 11.3197 10.9892 11.375 10.85 11.375H10.325V3.15C10.325 3.01076 10.3803 2.87723 10.4788 2.77877C10.5772 2.68031 10.7108 2.625 10.85 2.625H11.375ZM9.1875 2.625H9.7125V10.85C9.7125 10.9892 9.65719 11.1228 9.55873 11.2212C9.46027 11.3197 9.32674 11.375 9.1875 11.375H8.6625V5.3375C8.6625 5.19826 8.71781 5.06473 8.81627 4.96627C8.91473 4.86781 9.04826 4.8125 9.1875 4.8125V2.625ZM4.8125 11.375H4.2875V3.15C4.2875 3.01076 4.34281 2.87723 4.44127 2.77877C4.53973 2.68031 4.67326 2.625 4.8125 2.625H5.3375V8.6625C5.3375 8.80174 5.28219 8.93528 5.18373 9.03373C5.08527 9.13219 4.95174 9.1875 4.8125 9.1875V11.375ZM2.625 11.375V3.15C2.625 3.01076 2.68031 2.87723 2.77877 2.77877C2.87723 2.68031 3.01076 2.625 3.15 2.625H3.675V10.85C3.675 10.9892 3.61969 11.1228 3.52123 11.2212C3.42277 11.3197 3.28924 11.375 3.15 11.375H2.625Z" fill="#FFF8F1"/>
</svg>
